<?xml version="1.0" encoding="utf-8" standalone="no"?>
<!DOCTYPE svg PUBLIC "-//W3C//DTD SVG 1.1//EN"
  "http://www.w3.org/Graphics/SVG/1.1/DTD/svg11.dtd">
<svg xmlns:xlink="http://www.w3.org/1999/xlink" width="576pt" height="494.201183pt" viewBox="0 0 576 494.201183" xmlns="http://www.w3.org/2000/svg" version="1.1">
 <metadata>
  <rdf:RDF xmlns:dc="http://purl.org/dc/elements/1.1/" xmlns:cc="http://creativecommons.org/ns#" xmlns:rdf="http://www.w3.org/1999/02/22-rdf-syntax-ns#">
   <cc:Work>
    <dc:type rdf:resource="http://purl.org/dc/dcmitype/StillImage"/>
    <dc:format>image/svg+xml</dc:format>
    <dc:creator>
     <cc:Agent>
      <dc:title>Matplotlib v3.8.2, https://matplotlib.org/</dc:title>
     </cc:Agent>
    </dc:creator>
   </cc:Work>
  </rdf:RDF>
 </metadata>
 <defs>
  <style type="text/css">*{stroke-linejoin: round; stroke-linecap: butt}</style>
 </defs>
 <g id="figure_1">
  <g id="patch_1">
   <path d="M 0 494.201183 
L 576 494.201183 
L 576 0 
L 0 0 
L 0 494.201183 
z
" style="fill: none"/>
  </g>
  <g id="axes_1">
   <g id="patch_2">
    <path d="M 444.781065 289.704142 
L 576 289.704142 
L 576 204.497041 
L 444.781065 204.497041 
L 405.585799 247.100592 
z
" clip-path="url(#p7edfb968f2)"/>
   </g>
   <g id="patch_3">
    <path d="M 506.376923 255.612426 
Q 506.376923 252.828994 507.284024 250.67929 
Q 508.20355 248.529586 509.595266 246.864497 
Q 510.986982 245.186982 512.577515 243.757988 
Q 514.168047 242.328994 515.559763 241.02426 
Q 516.951479 239.707101 517.85858 238.278107 
Q 518.778107 236.836686 518.778107 235.097041 
Q 518.778107 232.226627 516.429586 230.486982 
Q 514.093491 228.734911 510.191716 228.734911 
Q 506.451479 228.734911 503.506509 230.288166 
Q 500.573964 231.828994 498.660355 234.612426 
L 489.042604 228.971006 
Q 492.223669 224.112426 497.865089 221.21716 
Q 503.506509 218.309467 511.546154 218.309467 
Q 517.510651 218.309467 522.033728 220.02426 
Q 526.569231 221.726627 529.153846 224.994675 
Q 531.738462 228.250296 531.738462 233.021893 
Q 531.738462 236.128402 530.781657 238.514201 
Q 529.837278 240.9 528.321302 242.652071 
Q 526.817751 244.391716 525.102959 245.907692 
Q 523.388166 247.423669 521.872189 248.852663 
Q 520.368639 250.281657 519.374556 251.872189 
Q 518.380473 253.462722 518.380473 255.612426 
L 506.376923 255.612426 
z
M 512.415976 275.568639 
Q 509.073373 275.568639 506.923669 273.431361 
Q 504.786391 271.281657 504.786391 268.336686 
Q 504.786391 265.31716 506.923669 263.291716 
Q 509.073373 261.253846 512.415976 261.253846 
Q 515.833136 261.253846 517.945562 263.291716 
Q 520.057988 265.31716 520.057988 268.336686 
Q 520.057988 271.281657 517.945562 273.431361 
Q 515.833136 275.568639 512.415976 275.568639 
z
" clip-path="url(#p7edfb968f2)" style="fill: #ffffff"/>
   </g>
  </g>
 </g>
 <defs>
  <clipPath id="p7edfb968f2">
   <rect x="0" y="0" width="576" height="494.201183"/>
  </clipPath>
 </defs>
</svg>
